<svg id="Camada_1" data-name="Camada 1" xmlns="http://www.w3.org/2000/svg" viewBox="0 0 40 40"><defs><style>.cls-1{fill:none;stroke:#f7a941;stroke-linecap:round;stroke-width:2px;}</style></defs><g id="Grupo_477" data-name="Grupo 477"><g id="Grupo_473" data-name="Grupo 473"><path id="Caminho_796" data-name="Caminho 796" class="cls-1" d="M38.84,7s-14-4.2-20.28,2.72C13.83,15,16.74,21.28,16.74,21.28s5.77,8.64,14.68,1.82C38.91,17.35,38.84,7,38.84,7Z"/></g><g id="Grupo_474" data-name="Grupo 474"><path id="Caminho_797" data-name="Caminho 797" class="cls-1" d="M1.16,15s9.52-2.86,13.78,1.84a7.49,7.49,0,0,1,1.25,7.83s-3.93,5.88-10,1.24C1.11,22,1.16,15,1.16,15Z"/></g><g id="Grupo_475" data-name="Grupo 475"><path id="Caminho_798" data-name="Caminho 798" class="cls-1" d="M29.94,11.42c-8.8.79-13.57,8.47-13.57,8.47V34.23"/></g><g id="Grupo_476" data-name="Grupo 476"><path id="Caminho_799" data-name="Caminho 799" class="cls-1" d="M7.21,17.93c6,.54,9.22,5.76,9.22,5.76v9.74"/></g></g></svg>