<svg id="Camada_1" data-name="Camada 1" xmlns="http://www.w3.org/2000/svg" viewBox="0 0 40 40"><defs><style>.cls-1,.cls-2{fill:none;}.cls-2{stroke:#f7a941;stroke-width:1.5px;}.cls-3{fill:#f7a941;}</style></defs><rect class="cls-1" x="3.48" y="2.3" width="33.04" height="35.41"/><g id="Grupo_449" data-name="Grupo 449"><path id="Caminho_774" data-name="Caminho 774" class="cls-2" d="M20.26,37.05c4.3,0,7.8-7.21,7.8-16.11s-3.5-16.1-7.8-16.1-7.8,7.21-7.8,16.11S16,37.05,20.26,37.05Z"/></g><g id="Grupo_450" data-name="Grupo 450"><path id="Caminho_775" data-name="Caminho 775" class="cls-2" d="M5.62,32.33c3,2.34,12-.86,20.07-7.15s12.2-13.29,9.2-15.62-12,.86-20.07,7.16S2.62,30,5.62,32.33Z"/></g><g id="Grupo_451" data-name="Grupo 451"><path id="Caminho_776" data-name="Caminho 776" class="cls-2" d="M5.62,9.56c-3,2.33,1.12,9.33,9.2,15.62s17.07,9.5,20.07,7.16S33.78,23,25.69,16.72,8.62,7.22,5.62,9.56Z"/></g><g id="Grupo_452" data-name="Grupo 452"><path id="Caminho_777" data-name="Caminho 777" class="cls-3" d="M6,18.73a2.55,2.55,0,0,0,2.48-2.61h0A2.54,2.54,0,0,0,6,13.52a2.6,2.6,0,0,0,0,5.2"/></g><g id="Grupo_453" data-name="Grupo 453"><path id="Caminho_778" data-name="Caminho 778" class="cls-3" d="M33.65,19.35a2.54,2.54,0,0,0,2.48-2.6h0a2.48,2.48,0,1,0-2.48,2.6"/></g><g id="Grupo_454" data-name="Grupo 454"><path id="Caminho_779" data-name="Caminho 779" class="cls-3" d="M20,31.6A2.53,2.53,0,0,0,22.51,29h0A2.48,2.48,0,1,0,20,31.6"/></g><g id="Grupo_455" data-name="Grupo 455"><path id="Caminho_780" data-name="Caminho 780" class="cls-3" d="M20.32,7.5a2.55,2.55,0,0,0,2.49-2.6h0a2.49,2.49,0,1,0-5,0,2.55,2.55,0,0,0,2.48,2.6"/></g></svg>