<svg id="Camada_1" data-name="Camada 1" xmlns="http://www.w3.org/2000/svg" xmlns:xlink="http://www.w3.org/1999/xlink" viewBox="0 0 40 40"><defs><style>.cls-1{fill:none;}.cls-2{clip-path:url(#clip-path);}.cls-3{fill:#f1cb40;}.cls-4{fill:#f7a941;}.cls-5{fill:#faedbc;stroke:#f1cb40;stroke-width:2px;}</style><clipPath id="clip-path"><rect class="cls-1" x="0.3" y="2.91" width="39.4" height="34.18"/></clipPath></defs><g id="Grupo_699" data-name="Grupo 699"><g class="cls-2"><g id="Grupo_563" data-name="Grupo 563"><g id="Grupo_556" data-name="Grupo 556"><path id="Caminho_871" data-name="Caminho 871" class="cls-3" d="M33.38,15.94a3,3,0,0,0,3-3h0a3,3,0,0,0-3-3h0a3,3,0,0,0,0,6"/></g><g id="Grupo_557" data-name="Grupo 557"><path id="Caminho_872" data-name="Caminho 872" class="cls-3" d="M6.62,15.94a3,3,0,0,0,3-3h0a3,3,0,0,0-3-3h0a3,3,0,1,0,0,6"/></g><g id="Grupo_558" data-name="Grupo 558"><path id="Caminho_873" data-name="Caminho 873" class="cls-3" d="M20.3,13.71a5.47,5.47,0,0,0,5.54-5.4,5.54,5.54,0,0,0-11.08,0,5.47,5.47,0,0,0,5.54,5.4"/></g><g id="Grupo_559" data-name="Grupo 559"><path id="Caminho_874" data-name="Caminho 874" class="cls-3" d="M12.93,23.15a6.32,6.32,0,0,0-6.31-6.32h0A6.32,6.32,0,0,0,.3,23.15h0a.5.5,0,0,0,0,.12h0v8.47H9.92V28.51a6.28,6.28,0,0,0,3-5.36"/></g><g id="Grupo_560" data-name="Grupo 560"><path id="Caminho_875" data-name="Caminho 875" class="cls-3" d="M39.7,23.27h0s0-.08,0-.12a6.31,6.31,0,0,0-6.32-6.31h0a6.31,6.31,0,0,0-6.31,6.31h0a6.28,6.28,0,0,0,3,5.36v3.23H39.7Z"/></g><g id="Grupo_561" data-name="Grupo 561"><path id="Caminho_876" data-name="Caminho 876" class="cls-4" d="M30.48,36.22V25h-.07a10.13,10.13,0,0,0-20.23,0h-.06V36.22Z"/></g><g id="Grupo_562" data-name="Grupo 562"><path id="Caminho_877" data-name="Caminho 877" class="cls-5" d="M30.48,36.22V25h-.07a10.13,10.13,0,0,0-20.23,0h-.06V36.22Z"/></g></g></g></g></svg>