<svg id="Camada_1" data-name="Camada 1" xmlns="http://www.w3.org/2000/svg" xmlns:xlink="http://www.w3.org/1999/xlink" viewBox="0 0 40 40"><defs><style>.cls-1,.cls-4{fill:none;}.cls-2{clip-path:url(#clip-path);}.cls-3{fill:#c8d300;}.cls-4{stroke:#c8d300;stroke-width:2px;}</style><clipPath id="clip-path"><rect class="cls-1" x="4" y="0.24" width="32" height="39.53"/></clipPath></defs><g class="cls-2"><g id="Grupo_643" data-name="Grupo 643"><g id="Grupo_639" data-name="Grupo 639"><path id="Caminho_896" data-name="Caminho 896" class="cls-3" d="M18.34,24V22.86c0-.59-.2-.88-.6-.88a.5.5,0,0,0-.56.58v.89c0,.77-.21,1.16-.64,1.16S16,24.4,15.92,24a6,6,0,0,1,0-1V19.24c0-2.13-1.12-3.19-3.34-3.19a4.07,4.07,0,0,0-2.46.73,2.14,2.14,0,0,0-1,1.76,1.13,1.13,0,0,0,.32.8,1.06,1.06,0,0,0,.8.33.91.91,0,0,0,.67-.24.77.77,0,0,0,.27-.6.76.76,0,0,0-.26-.63c-.11-.07-.17-.13-.17-.18s.1-.26.28-.38a2.81,2.81,0,0,1,1.54-.46,2.22,2.22,0,0,1,1.45.43,1.46,1.46,0,0,1,.53,1.18A1.19,1.19,0,0,1,14,19.87a5.61,5.61,0,0,1-2,.46,12.69,12.69,0,0,0-1.43.21,3.2,3.2,0,0,0-.85.36,2.38,2.38,0,0,0-1.31,2.23,2.43,2.43,0,0,0,.89,2,3.56,3.56,0,0,0,2.37.73,3.28,3.28,0,0,0,2.93-1.37,1.69,1.69,0,0,0,1.85,1.3,1.63,1.63,0,0,0,1.86-1.36,1.79,1.79,0,0,0,0-.4m-4.62,0a2.69,2.69,0,0,1-1.93.67,2.1,2.1,0,0,1-1.37-.4,1.31,1.31,0,0,1-.49-1.09c0-.89.69-1.41,2.07-1.54a8.61,8.61,0,0,0,1.6-.26,2.3,2.3,0,0,0,.85-.51v1.3a2.46,2.46,0,0,1-.73,1.83"/></g><g id="Grupo_640" data-name="Grupo 640"><path id="Caminho_897" data-name="Caminho 897" class="cls-3" d="M24,20q4.72,0,4.73-3.74c0-2-1.17-3.27-3.52-3.74q2.92-.69,2.92-3.14,0-3.47-4.83-3.46H17V20Zm-2.88-6.78h1.1c1.57,0,2.36,1,2.36,3,0,1.74-.76,2.62-2.29,2.62H21.08Zm0-6.13h1.15c1.24,0,1.85.79,1.85,2.38s-.58,2.58-1.74,2.58H21.08Z"/></g><g id="Grupo_641" data-name="Grupo 641"><path id="Caminho_898" data-name="Caminho 898" class="cls-3" d="M29.48,25.86c1.13-1,2.09-2.29,2.09-3.35,0-2.79-4.37-2.38-8.08.42-2.45,1.88-4.42,4.64-4.42,7.28,0,4.41,4.9,5.26,8.33,1.44.32-.37-.25-.5-.6-.16-1,1-3.06,2.2-4.71,1.87C20.15,33,19.85,31.19,19.9,30c.09-3.2,5.24-8.76,9.27-8.76,1.69,0,1.92,1.27,1.21,2.58S28,26.4,27.19,26.4s-.49-1.16.78-1.69c.28-.09.23-.78,0-.73a3,3,0,0,0-1.4.84c-1.37,1.47-.32,3.88,2.93,1"/></g><g id="Grupo_642" data-name="Grupo 642"><path id="Caminho_899" data-name="Caminho 899" class="cls-4" d="M10,1.06A5.19,5.19,0,0,0,4.82,6.25V33.76A5.18,5.18,0,0,0,10,38.94H30a5.18,5.18,0,0,0,5.19-5.18h0V6.25A5.19,5.19,0,0,0,30,1.06Z"/></g></g></g></svg>