<svg id="Camada_1" data-name="Camada 1" xmlns="http://www.w3.org/2000/svg" xmlns:xlink="http://www.w3.org/1999/xlink" viewBox="0 0 40 40"><defs><style>.cls-1,.cls-4,.cls-6{fill:none;}.cls-2{clip-path:url(#clip-path);}.cls-3{fill:#8ccaae;}.cls-4,.cls-6{stroke:#8ccaae;stroke-width:2px;}.cls-5{fill:#d7ede3;}.cls-6{stroke-linecap:round;stroke-linejoin:round;}</style><clipPath id="clip-path"><rect class="cls-1" x="3.98" y="0.32" width="32.05" height="39.35"/></clipPath></defs><g id="Grupo_636" data-name="Grupo 636"><g class="cls-2"><g id="Grupo_546" data-name="Grupo 546"><g id="Grupo_542" data-name="Grupo 542"><path id="Caminho_858" data-name="Caminho 858" class="cls-3" d="M9.55,4.21A2.12,2.12,0,0,0,7.43,6.33v30.4a2.14,2.14,0,0,0,2.12,2.13H33.08a2.14,2.14,0,0,0,2.12-2.13V6.33a2.12,2.12,0,0,0-2.12-2.12Z"/></g><g id="Grupo_543" data-name="Grupo 543"><path id="Caminho_859" data-name="Caminho 859" class="cls-4" d="M9.55,4.21A2.12,2.12,0,0,0,7.43,6.33v30.4a2.14,2.14,0,0,0,2.12,2.13H33.08a2.14,2.14,0,0,0,2.12-2.13V6.33a2.12,2.12,0,0,0-2.12-2.12Z"/></g><g id="Grupo_544" data-name="Grupo 544"><path id="Caminho_860" data-name="Caminho 860" class="cls-5" d="M6.92,1.15A2.12,2.12,0,0,0,4.8,3.27V33.68A2.12,2.12,0,0,0,6.92,35.8H30.44a2.12,2.12,0,0,0,2.13-2.12V3.27a2.12,2.12,0,0,0-2.13-2.12Z"/></g><g id="Grupo_545" data-name="Grupo 545"><path id="Caminho_861" data-name="Caminho 861" class="cls-4" d="M6.92,1.15A2.12,2.12,0,0,0,4.8,3.27V33.68A2.12,2.12,0,0,0,6.92,35.8H30.44a2.12,2.12,0,0,0,2.13-2.12V3.27a2.12,2.12,0,0,0-2.13-2.12Z"/></g></g></g><g id="Grupo_547" data-name="Grupo 547"><path id="Caminho_863" data-name="Caminho 863" class="cls-6" d="M9.88,6.85H27.49"/></g><g id="Grupo_548" data-name="Grupo 548"><path id="Caminho_864" data-name="Caminho 864" class="cls-6" d="M9.88,10.17H27.49"/></g><g id="Grupo_549" data-name="Grupo 549"><path id="Caminho_865" data-name="Caminho 865" class="cls-6" d="M9.88,13.49H27.49"/></g><g id="Grupo_550" data-name="Grupo 550"><path id="Caminho_866" data-name="Caminho 866" class="cls-6" d="M9.88,16.81H27.49"/></g><g id="Grupo_551" data-name="Grupo 551"><path id="Caminho_867" data-name="Caminho 867" class="cls-6" d="M9.88,23.45H27.49"/></g><g id="Grupo_552" data-name="Grupo 552"><path id="Caminho_868" data-name="Caminho 868" class="cls-6" d="M9.88,20.13H27.49"/></g><g id="Grupo_553" data-name="Grupo 553"><path id="Caminho_869" data-name="Caminho 869" class="cls-6" d="M9.88,26.78H27.49"/></g><g id="Grupo_554" data-name="Grupo 554"><path id="Caminho_870" data-name="Caminho 870" class="cls-6" d="M9.88,30.1H27.49"/></g></g></svg>