<svg id="Camada_1" data-name="Camada 1" xmlns="http://www.w3.org/2000/svg" viewBox="0 0 40 40"><defs><style>.cls-1{fill:none;stroke:#f7a941;stroke-width:2px;}.cls-2{fill:#f7a941;}.cls-3{fill:#fce1bc;}</style></defs><g id="Grupo_462" data-name="Grupo 462"><path id="Caminho_786" data-name="Caminho 786" class="cls-1" d="M6.06,27.27,28,5.59"/></g><g id="Grupo_463" data-name="Grupo 463"><path id="Caminho_787" data-name="Caminho 787" class="cls-1" d="M8.87,30.47,30.79,8.79"/></g><g id="Grupo_464" data-name="Grupo 464"><path id="Caminho_788" data-name="Caminho 788" class="cls-1" d="M12.33,33.54,34.26,11.86"/></g><g id="Grupo_471" data-name="Grupo 471"><path id="Caminho_795" data-name="Caminho 795" class="cls-2" d="M32.91,4.21,36,7.32l2.07-5.18Z"/></g><g id="Grupo_461" data-name="Grupo 461"><g id="Grupo_459" data-name="Grupo 459"><path id="Caminho_783" data-name="Caminho 783" class="cls-1" d="M28,5.57,34.23,12l4-10.19Z"/></g><g id="Grupo_460" data-name="Grupo 460"><path id="Caminho_784" data-name="Caminho 784" class="cls-1" d="M6.15,27.29l6.24,6.32L9,37s-3,2.85-5.8,0-.44-6.24-.44-6.24Z"/></g></g><g id="Grupo_465" data-name="Grupo 465"><path id="Caminho_789" data-name="Caminho 789" class="cls-3" d="M11.61,15.76S32.72,42.09,38.18,37.6,18,11.6,16.75,11.36s-2.45,2.85-2.45,2.85Z"/></g><g id="Grupo_466" data-name="Grupo 466"><path id="Caminho_790" data-name="Caminho 790" class="cls-1" d="M11.61,15.76S32.72,42.09,38.18,37.6,18,11.6,16.75,11.36s-2.45,2.85-2.45,2.85Z"/></g><g id="Grupo_467" data-name="Grupo 467"><path id="Caminho_791" data-name="Caminho 791" class="cls-3" d="M2,1.78S4.78,23.56,15.55,14.67C24.45,5.3,6.65,1.68,2,1.78"/></g><g id="Grupo_468" data-name="Grupo 468"><path id="Caminho_792" data-name="Caminho 792" class="cls-1" d="M2,1.78S4.78,23.56,15.55,14.67C24.45,5.3,6.65,1.68,2,1.78Z"/></g><g id="Grupo_469" data-name="Grupo 469"><path id="Caminho_793" data-name="Caminho 793" class="cls-2" d="M3.88,10.19S7.9,13,9.73,8.38s4-3.63,4-3.63S6.78,1.91,6.36,1.91H1.06Z"/></g></svg>