<svg id="Camada_1" data-name="Camada 1" xmlns="http://www.w3.org/2000/svg" xmlns:xlink="http://www.w3.org/1999/xlink" viewBox="0 0 40 40"><defs><style>.cls-1,.cls-3,.cls-5{fill:none;}.cls-2{clip-path:url(#clip-path);}.cls-3,.cls-5{stroke:#f1cb40;stroke-width:2px;}.cls-3{stroke-linecap:round;stroke-linejoin:round;}.cls-4{fill:#faedbc;}</style><clipPath id="clip-path"><rect class="cls-1" x="0.36" y="1" width="39.29" height="38.45"/></clipPath></defs><g class="cls-2"><g id="Grupo_505" data-name="Grupo 505"><g id="Grupo_503" data-name="Grupo 503"><path id="Caminho_823" data-name="Caminho 823" class="cls-3" d="M5.36,9.24H1.17V3.91s.5-2.09,2.1-2.09S5.65,4.2,5.65,4.2V36.83a1.63,1.63,0,0,0,1.46,1.8h.34c2,0,1.71-1.71,1.71-1.71V31.3H32.85v5.9s-.17,1.43-2.47,1.43h-23"/></g><g id="Grupo_504" data-name="Grupo 504"><path id="Caminho_824" data-name="Caminho 824" class="cls-3" d="M3.17,1.82h23s2.3.13,2.3,2.3V30.93"/></g></g></g><g id="Grupo_506" data-name="Grupo 506"><path id="Caminho_826" data-name="Caminho 826" class="cls-3" d="M10.19,11.43H24.27"/></g><g id="Grupo_507" data-name="Grupo 507"><path id="Caminho_827" data-name="Caminho 827" class="cls-3" d="M10.19,7.63H24.27"/></g><g id="Grupo_508" data-name="Grupo 508"><path id="Caminho_828" data-name="Caminho 828" class="cls-3" d="M10.19,15.23H24.27"/></g><g id="Grupo_509" data-name="Grupo 509"><path id="Caminho_829" data-name="Caminho 829" class="cls-3" d="M10.19,19H24.27"/></g><g id="Grupo_510" data-name="Grupo 510"><path id="Caminho_830" data-name="Caminho 830" class="cls-3" d="M10.19,22.84h6.37"/></g><g id="Grupo_511" data-name="Grupo 511"><path id="Caminho_831" data-name="Caminho 831" class="cls-3" d="M10.19,26.64h6.15"/></g><rect class="cls-1" x="0.36" y="1" width="39.29" height="38.45"/><g id="Grupo_514" data-name="Grupo 514"><g id="Grupo_512" data-name="Grupo 512"><path id="Caminho_832" data-name="Caminho 832" class="cls-4" d="M31.17,11.43A4.34,4.34,0,0,1,37.3,11a4.47,4.47,0,0,1,.44.43c2.82,2.77-.74,5.48-.74,5.48l-12.4,6.8Z"/></g><g id="Grupo_513" data-name="Grupo 513"><path id="Caminho_833" data-name="Caminho 833" class="cls-5" d="M31.17,11.43A4.34,4.34,0,0,1,37.3,11a4.47,4.47,0,0,1,.44.43c2.82,2.77-.74,5.48-.74,5.48l-12.4,6.8Z"/></g></g><g id="Grupo_515" data-name="Grupo 515"><path id="Caminho_835" data-name="Caminho 835" class="cls-3" d="M21.53,27.31l3.32-3.41,9.92-10.37"/></g></svg>